# xmcd
#
# Track frame offsets: 
#        150
#        19222
#        35663
#        56429
#        74110
#        90547
#        110419
#        127459
#        146692
#        163549
#        179411
#
# Disc length: 2677 seconds
#
# Revision: 0
# Processed by: cddbd v1.5.2PL0 Copyright (c) Steve Scherf et al.
# Submitted via: ExactAudioCopy v0.90b4
#
DISCID=a60a730b
DTITLE=Joe Veras - Vida
DYEAR=2008
DGENRE=Latin
TTITLE0=Aferrado
TTITLE1=Vida
TTITLE2=Pido Auxilio
TTITLE3=Ella Volvió
TTITLE4=Duelale A Quien Le Duela
TTITLE5=Sexto Sentido
TTITLE6=Voy A Llorar
TTITLE7=La Maldaosa
TTITLE8=Me Enamoré
TTITLE9=No Te Quites La Ropa
TTITLE10=Juanita Morel
EXTD=
EXTT0=
EXTT1=
EXTT2=
EXTT3=
EXTT4=
EXTT5=
EXTT6=
EXTT7=
EXTT8=
EXTT9=
EXTT10=
PLAYORDER=
